<svg width="80" height="80" viewBox="0 0 80 80" fill="none" xmlns="http://www.w3.org/2000/svg">
<circle cx="40" cy="40" r="40" fill="#5963C1"/>
<g clip-path="url(#clip0_233_2)">
<path d="M36.1003 36.754C34.8759 36.754 33.7722 36.0749 33.2224 34.9824C32.4251 33.3956 33.0639 31.4555 34.6489 30.6556C35.0978 30.4304 35.5928 30.3125 36.095 30.3112C36.692 30.3094 37.2777 30.4742 37.7863 30.7869C38.2948 31.0996 38.7061 31.548 38.974 32.0815C39.7736 33.6685 39.1325 35.6097 37.5475 36.4074C37.0988 36.6344 36.6032 36.7531 36.1003 36.754ZM32.3221 43.3386C32.2589 43.3386 32.1982 43.3364 32.1351 43.3343C30.3654 43.231 29.0041 41.7061 29.1052 39.9334C29.2051 38.1673 30.7185 36.7957 32.5025 36.9C34.2743 36.9988 35.6335 38.5258 35.5336 40.2985C35.4358 42.0049 34.0233 43.3386 32.3221 43.3386ZM36.1246 49.9034C35.4979 49.9038 34.8849 49.7205 34.3612 49.3764C34.007 49.1452 33.7022 48.8462 33.4643 48.4966C33.2263 48.1469 33.0601 47.7536 32.9751 47.3393C32.7989 46.4982 32.963 45.6372 33.4334 44.9168C33.7265 44.4694 34.1263 44.1021 34.5969 43.848C35.0675 43.5939 35.594 43.461 36.1288 43.4614C36.7557 43.4614 37.3673 43.6452 37.8921 43.9897C38.2469 44.2205 38.5523 44.5195 38.7904 44.8693C39.0286 45.2192 39.1949 45.6129 39.2796 46.0275C39.4566 46.8688 39.2923 47.7284 38.8199 48.4492C38.5274 48.897 38.1276 49.2645 37.6568 49.5185C37.1861 49.7724 36.6594 49.9047 36.1246 49.9034ZM43.7174 49.8881C43.1207 49.8896 42.5354 49.7246 42.0274 49.4116C41.5193 49.0986 41.1087 48.6501 40.8417 48.1164C40.4538 47.3493 40.3899 46.4764 40.6591 45.658C40.9275 44.8407 41.5013 44.1788 42.2682 43.7908C42.7168 43.5638 43.2125 43.4453 43.7153 43.445C44.3124 43.4431 44.8982 43.608 45.4065 43.9213C45.9148 44.2346 46.3255 44.6837 46.5921 45.2179C47.3897 46.8036 46.7507 48.7437 45.1656 49.5436C44.7162 49.7694 44.2204 49.8874 43.7174 49.8881ZM47.5004 43.3061C47.4362 43.3061 47.3754 43.3018 47.3147 43.2997C45.5405 43.1996 44.1813 41.6723 44.2823 39.9018C44.3823 38.1346 45.8968 36.7631 47.6808 36.8673C48.103 36.89 48.5166 36.9963 48.8974 37.1801C49.2782 37.3639 49.6188 37.6214 49.8993 37.9378C50.1818 38.2529 50.3989 38.621 50.538 39.0207C50.6771 39.4203 50.7354 39.8436 50.7096 40.266C50.6139 41.9713 49.2029 43.3061 47.5004 43.3061ZM43.6849 36.7391C43.0602 36.7391 42.4497 36.5577 41.9226 36.2109C40.4364 35.2359 40.0227 33.236 40.9961 31.7505C41.289 31.3033 41.6887 30.9361 42.159 30.6822C42.6294 30.4282 43.1557 30.2956 43.6902 30.2961C44.3171 30.2961 44.9278 30.4788 45.4525 30.8231C46.9377 31.7959 47.3538 33.7968 46.3803 35.2826C45.7817 36.1924 44.7757 36.7391 43.6849 36.7391ZM32.8767 24.7808C33.2777 25.5743 32.9572 26.5438 32.1652 26.9416C31.9768 27.0368 31.7714 27.0939 31.5608 27.1097C31.3502 27.1255 31.1386 27.0997 30.938 27.0337C30.7375 26.9676 30.5518 26.8628 30.3918 26.725C30.2318 26.5872 30.1005 26.4193 30.0054 26.2307C29.813 25.8495 29.7799 25.4076 29.9134 25.002C30.0468 24.5964 30.3359 24.2604 30.717 24.0679C31.509 23.6701 32.478 23.9874 32.8767 24.7808ZM23.1316 38.5297C24.0192 38.5798 24.6971 39.3406 24.6472 40.2275C24.5972 41.1156 23.8356 41.7937 22.9493 41.7448C22.0625 41.6927 21.3857 40.933 21.4346 40.0448C21.4845 39.1591 22.2451 38.4799 23.1316 38.5297ZM30.1607 53.8482C30.2763 53.6715 30.4257 53.5193 30.6002 53.4003C30.7747 53.2813 30.971 53.198 31.1777 53.1549C31.3845 53.1119 31.5978 53.1101 31.8052 53.1496C32.0127 53.1892 32.2104 53.2692 32.3869 53.3852C33.13 53.8712 33.3374 54.8689 32.8497 55.6135C32.3631 56.3568 31.3656 56.5634 30.6225 56.0776C30.2659 55.843 30.017 55.4765 29.9304 55.0585C29.8439 54.6406 29.9267 54.2052 30.1607 53.8482ZM46.9372 55.4178C46.5363 54.6253 46.8567 53.6583 47.6476 53.2581C48.4441 52.8582 49.4099 53.1778 49.8088 53.9689C50.2096 54.7624 49.8889 55.7318 49.0958 56.1296C48.9074 56.225 48.7021 56.2823 48.4915 56.2981C48.2809 56.3139 48.0693 56.288 47.8687 56.2219C47.6682 56.1557 47.4827 56.0507 47.3228 55.9127C47.163 55.7747 47.032 55.6065 46.9372 55.4178ZM56.6813 41.6689C55.7926 41.6188 55.1168 40.8578 55.1668 39.9711C55.1784 39.76 55.2315 39.5533 55.3231 39.3627C55.4147 39.1722 55.543 39.0017 55.7007 38.8608C55.8583 38.72 56.0422 38.6116 56.2418 38.5419C56.4414 38.4723 56.6528 38.4427 56.8638 38.4549C57.7504 38.5037 58.4304 39.2645 58.3804 40.1536C58.3316 41.0416 57.5678 41.7189 56.6813 41.6689ZM49.6543 26.3504C49.5392 26.5286 49.3899 26.6822 49.2152 26.8025C49.0404 26.9228 48.8436 27.0073 48.636 27.0512C48.4284 27.0951 48.2142 27.0975 48.0057 27.0582C47.7972 27.019 47.5986 26.9389 47.4212 26.8225C47.2438 26.7061 47.0911 26.5559 46.9721 26.3803C46.853 26.2047 46.7699 26.0073 46.7274 25.7994C46.6849 25.5915 46.684 25.3773 46.7247 25.1691C46.7654 24.9609 46.8469 24.7628 46.9644 24.5862C47.08 24.4094 47.2293 24.2572 47.4038 24.1382C47.5782 24.0191 47.7744 23.9357 47.9812 23.8926C48.1879 23.8495 48.4012 23.8476 48.6086 23.887C48.8161 23.9263 49.0138 24.0062 49.1904 24.1221C49.9325 24.6102 50.1411 25.6068 49.6543 26.3504ZM29.3592 19.8444C29.4835 20.0911 29.5048 20.377 29.4184 20.6393C29.332 20.9016 29.145 21.1189 28.8985 21.2433C28.7763 21.305 28.6433 21.3419 28.5069 21.352C28.3705 21.3622 28.2334 21.3453 28.1035 21.3024C27.9736 21.2595 27.8535 21.1914 27.75 21.102C27.6464 21.0125 27.5616 20.9036 27.5002 20.7814C27.3761 20.5349 27.3549 20.2492 27.4413 19.9871C27.5277 19.725 27.7146 19.5079 27.9609 19.3835C28.2075 19.2595 28.4932 19.2384 28.7554 19.3248C29.0175 19.4112 29.2347 19.5981 29.3592 19.8444ZM17.0989 39.1104C17.2354 39.1181 17.369 39.1525 17.4921 39.2118C17.6153 39.2711 17.7255 39.3542 17.8166 39.4561C17.9076 39.5581 17.9776 39.677 18.0226 39.806C18.0677 39.9351 18.0868 40.0718 18.079 40.2082C18.0452 40.782 17.5541 41.2233 16.9816 41.1874C16.8452 41.1801 16.7115 41.1458 16.5884 41.0867C16.4652 41.0275 16.3549 40.9446 16.2639 40.8428C16.1728 40.7409 16.1028 40.622 16.0578 40.493C16.0128 40.364 15.9938 40.2273 16.0018 40.0909C16.0175 39.8155 16.1418 39.5575 16.3475 39.3737C16.5532 39.1899 16.8235 39.0952 17.0989 39.1104ZM27.647 59.3654C27.722 59.2508 27.8188 59.1522 27.9319 59.0751C28.0451 58.998 28.1724 58.9441 28.3064 58.9163C28.4405 58.8885 28.5787 58.8875 28.7132 58.9133C28.8476 58.9391 28.9757 58.9912 29.0899 59.0666C29.2042 59.1418 29.3025 59.2387 29.3793 59.3518C29.4561 59.465 29.5098 59.5922 29.5375 59.7261C29.5651 59.86 29.5661 59.9981 29.5403 60.1324C29.5146 60.2667 29.4626 60.3946 29.3874 60.5089C29.236 60.7396 28.9993 60.9008 28.7291 60.957C28.459 61.0133 28.1776 60.96 27.9467 60.8089C27.7157 60.6571 27.5544 60.4198 27.4983 60.1491C27.4421 59.8785 27.4956 59.5966 27.647 59.3654ZM50.4552 60.3567C50.1966 59.8403 50.4031 59.2145 50.917 58.9568C51.0388 58.8951 51.1717 58.858 51.3079 58.8478C51.4442 58.8376 51.5811 58.8544 51.7108 58.8972C51.8405 58.94 51.9605 59.008 52.0638 59.0974C52.1672 59.1867 52.2519 59.2955 52.3131 59.4177C52.3748 59.5396 52.4119 59.6725 52.4223 59.8088C52.4326 59.945 52.4159 60.082 52.3732 60.2118C52.3305 60.3417 52.2626 60.4618 52.1734 60.5653C52.0843 60.6689 51.9755 60.7538 51.8535 60.8153C51.6072 60.9398 51.3216 60.9614 51.0594 60.8754C50.7972 60.7894 50.5799 60.6028 50.4552 60.3567ZM62.7144 41.0907C62.4385 41.0749 62.1801 40.9501 61.9961 40.7439C61.8122 40.5376 61.7176 40.2668 61.7333 39.9908C61.7409 39.8541 61.7754 39.7202 61.8349 39.5968C61.8944 39.4734 61.9777 39.363 62.0799 39.2719C62.1822 39.1809 62.3015 39.1109 62.4309 39.066C62.5603 39.0212 62.6973 39.0023 62.834 39.0106C63.4065 39.0409 63.8464 39.5354 63.8105 40.1092C63.7801 40.6821 63.2869 41.1211 62.7144 41.0907ZM52.1686 20.8334C51.8513 21.315 51.206 21.4497 50.7268 21.1335C50.4961 20.9817 50.335 20.7447 50.2788 20.4743C50.2226 20.2039 50.276 19.9223 50.4272 19.6912C50.502 19.5769 50.5987 19.4785 50.7116 19.4016C50.8246 19.3247 50.9516 19.2708 51.0855 19.2432C51.2193 19.2155 51.3572 19.2145 51.4914 19.2403C51.6256 19.266 51.7534 19.318 51.8675 19.3933C52.0982 19.5445 52.2595 19.7811 52.3159 20.0511C52.3724 20.3211 52.3194 20.6025 52.1686 20.8334ZM29.6743 32.0414C30.5477 32.613 30.7921 33.7869 30.2185 34.6609C30.0825 34.8691 29.9068 35.0483 29.7014 35.1884C29.4959 35.3286 29.2649 35.4267 29.0214 35.4773C28.778 35.5279 28.5269 35.5299 28.2827 35.4832C28.0384 35.4365 27.8058 35.3421 27.5982 35.2053C26.7235 34.6337 26.4802 33.4607 27.0537 32.5847C27.6275 31.712 28.8007 31.4663 29.6743 32.0414ZM27.8132 44.9359C28.7465 44.4644 29.8851 44.8416 30.3554 45.774C30.8248 46.7078 30.4499 47.8468 29.5166 48.3175C28.5846 48.7879 27.4447 48.411 26.9755 47.4794C26.5051 46.5458 26.8799 45.4064 27.8132 44.9359ZM37.9091 52.9952C37.9691 51.9519 38.8643 51.1541 39.906 51.2117C40.9513 51.2704 41.7486 52.1671 41.6889 53.2092C41.675 53.4576 41.6123 53.7008 41.5044 53.9249C41.3964 54.1491 41.2453 54.3497 41.0598 54.5154C40.8742 54.681 40.6578 54.8085 40.4229 54.8905C40.188 54.9724 39.9393 55.0072 39.691 54.993C38.648 54.9333 37.8507 54.0388 37.9094 52.9955M50.1413 48.1611C49.268 47.5858 49.0234 46.4132 49.5948 45.5382C50.1685 44.6654 51.3415 44.4221 52.2141 44.9948C53.0887 45.5664 53.332 46.7403 52.7596 47.6141C52.1869 48.4902 51.0137 48.7325 50.1413 48.1608M52.0011 35.2642C51.0681 35.7346 49.9293 35.3598 49.4601 34.4261C48.9896 33.4934 49.3634 32.3544 50.2977 31.885C51.2321 31.4132 52.3696 31.7893 52.842 32.7229C53.3104 33.6553 52.9345 34.7947 52.0011 35.2642ZM41.7705 27.2048C41.7106 28.2472 40.8155 29.0472 39.7702 28.9873C39.5221 28.9731 39.2791 28.9102 39.0553 28.8021C38.8315 28.694 38.6311 28.5429 38.4657 28.3574C38.3002 28.1719 38.173 27.9556 38.0911 27.7209C38.0093 27.4863 37.9744 27.2377 37.9886 26.9896C38.0483 25.9451 38.9415 25.1472 39.9844 25.2061C40.4862 25.2346 40.9562 25.4611 41.2911 25.8359C41.626 26.2106 41.7984 26.703 41.7705 27.2048ZM22.6267 28.645C23.2393 29.0449 23.4087 29.8677 23.0079 30.4795C22.9127 30.6251 22.7897 30.7505 22.6459 30.8485C22.5021 30.9465 22.3403 31.0151 22.17 31.0505C21.9996 31.0858 21.8239 31.0871 21.653 31.0544C21.4821 31.0217 21.3193 30.9556 21.174 30.8599C20.5625 30.4589 20.3908 29.6361 20.7928 29.0253C21.1947 28.4144 22.0149 28.2416 22.6267 28.645ZM21.3502 49.3434C21.5055 49.2648 21.6748 49.2177 21.8484 49.2046C22.022 49.1916 22.1965 49.213 22.3618 49.2675C22.5271 49.322 22.68 49.4086 22.8118 49.5224C22.9436 49.6361 23.0516 49.7748 23.1297 49.9303C23.2877 50.2444 23.3145 50.6083 23.2043 50.9422C23.0941 51.276 22.8559 51.5524 22.5419 51.7107C21.8889 52.0388 21.0927 51.778 20.7633 51.1248C20.4354 50.4716 20.6972 49.6728 21.3502 49.3434ZM38.4948 60.7991C38.5043 60.6254 38.5481 60.4552 38.6235 60.2984C38.699 60.1416 38.8046 60.0012 38.9344 59.8852C39.0642 59.7693 39.2156 59.6802 39.3799 59.6229C39.5442 59.5656 39.7183 59.5413 39.892 59.5513C40.0657 59.5611 40.2358 59.6051 40.3925 59.6806C40.5492 59.7562 40.6895 59.8619 40.8054 59.9917C40.9212 60.1215 41.0104 60.2729 41.0677 60.4372C41.125 60.6015 41.1493 60.7755 41.1394 60.9492C41.1299 61.123 41.0863 61.2933 41.0108 61.4502C40.9354 61.6072 40.8298 61.7477 40.7 61.8637C40.5701 61.9797 40.4187 62.0689 40.2543 62.1263C40.0899 62.1836 39.9158 62.2079 39.742 62.1978C39.5681 62.1881 39.3979 62.1442 39.2411 62.0687C39.0843 61.9931 38.9439 61.8873 38.8281 61.7573C38.7122 61.6274 38.6231 61.4759 38.5659 61.3115C38.5087 61.147 38.4846 60.9729 38.4948 60.7991ZM57.1855 51.5553C56.892 51.3623 56.687 51.0607 56.6156 50.7168C56.5441 50.3728 56.612 50.0146 56.8043 49.7206C57.2061 49.1097 58.0275 48.9369 58.6393 49.339C58.9325 49.5322 59.1373 49.8337 59.2088 50.1776C59.2802 50.5215 59.2125 50.8796 59.0205 51.1737C58.9251 51.3193 58.802 51.4447 58.6581 51.5427C58.5142 51.6406 58.3525 51.7093 58.1821 51.7447C58.0117 51.7802 57.8359 51.7816 57.6649 51.7491C57.4939 51.7166 57.331 51.6509 57.1855 51.5553ZM58.4644 30.8577C58.1501 31.0154 57.786 31.042 57.4521 30.9315C57.1183 30.8211 56.8419 30.5827 56.6836 30.2687C56.6053 30.1134 56.5584 29.9441 56.5456 29.7706C56.5328 29.5972 56.5543 29.4229 56.6089 29.2577C56.6635 29.0926 56.7501 28.9398 56.8638 28.8082C56.9774 28.6765 57.116 28.5686 57.2714 28.4905C57.4266 28.4121 57.5958 28.3651 57.7692 28.3522C57.9426 28.3392 58.1169 28.3605 58.2821 28.4149C58.4472 28.4693 58.6001 28.5558 58.7318 28.6692C58.8636 28.7827 58.9717 28.9211 59.05 29.0763C59.379 29.7308 59.1161 30.5284 58.4644 30.8577ZM41.1848 19.401C41.1649 19.7519 41.0065 20.0806 40.7442 20.3147C40.482 20.5487 40.1375 20.6691 39.7866 20.6492C39.4356 20.6293 39.107 20.4708 38.8729 20.2086C38.6388 19.9464 38.5185 19.6019 38.5384 19.2509C38.5809 18.5184 39.2054 17.9598 39.9366 18.0023C40.1104 18.0121 40.2806 18.0561 40.4374 18.1317C40.5942 18.2073 40.7346 18.3131 40.8505 18.443C40.9665 18.5729 41.0556 18.7243 41.113 18.8887C41.1704 19.0531 41.1948 19.2271 41.1848 19.401Z" fill="white"/>
</g>
<defs>
<clipPath id="clip0_233_2">
<rect width="48" height="48" fill="white" transform="translate(16 16)"/>
</clipPath>
</defs>
</svg>
