<svg width="80" height="80" viewBox="0 0 80 80" fill="none" xmlns="http://www.w3.org/2000/svg">
<circle cx="40" cy="40" r="40" fill="#7BC159"/>
<g clip-path="url(#clip0_234_23)">
<path d="M30.5861 24.586C30.961 24.2109 31.4697 24.0001 32.0001 24H58.0001C58.3956 24.0001 58.7822 24.1174 59.111 24.3372C59.4398 24.557 59.6961 24.8693 59.8474 25.2347C59.9988 25.6001 60.0384 26.0022 59.9612 26.3901C59.8841 26.778 59.6937 27.1343 59.4141 27.414L53.4141 33.414C53.0391 33.7891 52.5305 33.9999 52.0001 34H26.0001C25.6046 33.9999 25.218 33.8826 24.8891 33.6628C24.5603 33.443 24.304 33.1307 24.1527 32.7653C24.0014 32.3999 23.9618 31.9978 24.0389 31.6099C24.116 31.222 24.3064 30.8657 24.5861 30.586L30.5861 24.586ZM24.2361 37.056C24.407 36.7368 24.6613 36.47 24.972 36.284C25.2827 36.098 25.638 35.9999 26.0001 36H52.0001C52.3292 36 52.6534 36.0812 52.9436 36.2364C53.2339 36.3917 53.4814 36.6162 53.6641 36.89L57.6641 42.89C57.865 43.1912 57.9804 43.5413 57.998 43.903C58.0156 44.2646 57.9346 44.6243 57.7638 44.9435C57.593 45.2628 57.3387 45.5297 57.0281 45.7157C56.7175 45.9018 56.3621 46.0001 56.0001 46H30.0001C29.6709 46 29.3468 45.9188 29.0565 45.7636C28.7662 45.6083 28.5188 45.3838 28.3361 45.11L24.3361 39.11C24.135 38.8088 24.0195 38.4586 24.0018 38.0968C23.9842 37.7351 24.0652 37.3753 24.2361 37.056ZM28.5861 48.586C28.961 48.2109 29.4697 48.0001 30.0001 48H56.0001C56.3956 48.0001 56.7822 48.1174 57.111 48.3372C57.4398 48.557 57.6961 48.8693 57.8474 49.2347C57.9988 49.6001 58.0384 50.0022 57.9612 50.3901C57.8841 50.778 57.6937 51.1343 57.4141 51.414L51.4141 57.414C51.0391 57.7891 50.5305 57.9999 50.0001 58H24.0001C23.6046 57.9999 23.218 57.8826 22.8891 57.6628C22.5603 57.443 22.304 57.1307 22.1527 56.7653C22.0014 56.3999 21.9618 55.9978 22.0389 55.6099C22.116 55.222 22.3064 54.8657 22.5861 54.586L28.5861 48.586Z" fill="white"/>
</g>
<defs>
<clipPath id="clip0_234_23">
<rect width="48" height="48" fill="white" transform="translate(16 16)"/>
</clipPath>
</defs>
</svg>
