<svg width="80" height="80" viewBox="0 0 80 80" fill="none" xmlns="http://www.w3.org/2000/svg">
<circle cx="40" cy="40" r="40" fill="#8759C1"/>
<g clip-path="url(#clip0_233_12)">
<path d="M40 16C26.7452 16 16 26.7452 16 40C16 53.2548 26.7452 64 40 64C53.2548 64 64 53.2546 64 40C64 26.7452 53.2548 16 40 16ZM50.0449 50.6933C48.4847 53.3743 44.981 54.3197 42.2196 52.8053C39.4579 51.2909 38.4839 47.8897 40.0445 45.2085C40.6944 44.0918 40.2887 42.675 39.1378 42.0436C38.0033 41.4214 36.5679 41.7966 35.9051 42.8784H35.9046V42.8739C35.8953 42.8905 35.8871 42.9068 35.8775 42.9231C34.3174 45.604 30.8139 46.5497 28.0524 45.035C25.2906 43.5207 24.3165 40.1191 25.8767 37.4387C27.4373 34.7576 30.9406 33.8122 33.7026 35.327C34.6256 35.8333 35.3475 36.5512 35.8436 37.3818V37.3788L35.8441 37.3784C36.5321 38.4443 37.974 38.7879 39.0938 38.1416C40.2296 37.486 40.6031 36.0606 39.9276 34.9577C38.3068 32.3111 39.2031 28.8898 41.9296 27.3165C44.6557 25.743 48.1799 26.613 49.8011 29.2595C51.4218 31.9063 50.526 35.3274 47.799 36.9009C46.9165 37.41 45.9164 37.6797 44.8976 37.6834L44.9001 37.6845V37.6849C43.592 37.7287 42.5528 38.7782 42.5685 40.0555C42.5839 41.3498 43.6783 42.3874 45.0115 42.3721L45.0033 42.3766C46.0048 42.3674 46.9918 42.6155 47.87 43.097C50.631 44.6118 51.605 48.0128 50.0449 50.6933Z" fill="white"/>
</g>
<defs>
<clipPath id="clip0_233_12">
<rect width="48" height="48" fill="white" transform="translate(16 16)"/>
</clipPath>
</defs>
</svg>
